<svg aria-hidden="true" style="width:0;height:0;position:absolute;overflow:hidden" xmlns="http://www.w3.org/2000/svg"><defs><symbol id="icon-clarity_close-line" viewBox="0 0 32 32"><path d="m17.254 16 7.369-7.369a.889.889 0 0 0-1.255-1.252l.001-.001L16 14.747 8.632 7.369A.893.893 0 1 0 7.369 8.63l.001.001 7.378 7.37-7.377 7.369a.889.889 0 1 0 1.253 1.254l.001-.001 7.376-7.369 7.37 7.37a.889.889 0 0 0 1.252-1.255l.001.001-7.37-7.369z"/></symbol><symbol id="icon-infinite" viewBox="0 0 32 32"><path d="M24.5 23.5a7.448 7.448 0 0 1-5.303-2.197L16 18.107l-3.196 3.196c-1.417 1.417-3.3 2.197-5.303 2.197s-3.887-.78-5.304-2.197C.78 19.886 0 18.003 0 16s.78-3.887 2.197-5.304c1.417-1.417 3.3-2.197 5.304-2.197s3.887.78 5.303 2.197L16 13.892l3.196-3.196c1.417-1.417 3.3-2.197 5.303-2.197s3.887.78 5.303 2.197c1.417 1.417 2.197 3.3 2.197 5.304s-.78 3.887-2.197 5.303a7.448 7.448 0 0 1-5.303 2.197zm-3.196-4.303c.854.853 1.989 1.324 3.196 1.323s2.342-.47 3.196-1.324c.854-.854 1.324-1.989 1.324-3.196s-.47-2.342-1.324-3.196c-.854-.854-1.989-1.324-3.196-1.324s-2.342.47-3.196 1.324L18.108 16l3.196 3.197zM7.5 11.48c-1.207 0-2.342.47-3.196 1.324S2.98 14.793 2.98 16s.47 2.342 1.324 3.196S6.293 20.52 7.5 20.52a4.49 4.49 0 0 0 3.196-1.324L13.892 16l-3.196-3.196A4.49 4.49 0 0 0 7.5 11.48z"/></symbol><symbol id="icon-menu" viewBox="0 0 60 32"><path d="M2 0h56a2 2 0 1 1 0 4H2a2 2 0 1 1 0-4zM2 14h56a2 2 0 1 1 0 4H2a2 2 0 1 1 0-4zM2 28h56a2 2 0 1 1 0 4H2a2 2 0 1 1 0-4z"/></symbol><symbol id="icon-Vector" viewBox="0 0 32 32"><path d="m18.228 16 13.1-13.1A1.58 1.58 0 0 0 29.1.672L16 13.772 2.9.656A1.586 1.586 0 1 0 .656 2.9L13.772 16 .656 29.1a1.593 1.593 0 0 0-.552 1.139 1.572 1.572 0 0 0 1.003 1.532 1.578 1.578 0 0 0 1.776-.444l13.116-13.1 13.1 13.1a1.58 1.58 0 0 0 2.228-2.229l-13.1-13.1z"/></symbol></defs></svg>