<svg aria-hidden="true" style="position: absolute; width: 0; height: 0; overflow: hidden;" version="1.1" xmlns="http://www.w3.org/2000/svg" xmlns:xlink="http://www.w3.org/1999/xlink">
<defs>
<symbol id="icon-clarity_close-line" viewBox="0 0 32 32">
<path d="M17.254 16l7.369-7.369c0.138-0.156 0.223-0.362 0.223-0.588 0-0.49-0.398-0.888-0.888-0.888-0.226 0-0.433 0.085-0.59 0.224l0.001-0.001-7.369 7.369-7.368-7.378c-0.164-0.176-0.397-0.286-0.655-0.286-0.493 0-0.893 0.4-0.893 0.893 0 0.258 0.11 0.491 0.285 0.654l0.001 0.001 7.378 7.37-7.377 7.369c-0.191 0.164-0.31 0.405-0.31 0.675 0 0.491 0.398 0.889 0.889 0.889 0.27 0 0.511-0.12 0.674-0.31l0.001-0.001 7.376-7.369 7.37 7.37c0.154 0.133 0.357 0.214 0.578 0.214 0.491 0 0.889-0.398 0.889-0.889 0-0.221-0.081-0.424-0.215-0.58l0.001 0.001-7.37-7.369z"></path>
</symbol>
<symbol id="icon-infinite" viewBox="0 0 32 32">
<path d="M24.5 23.5c-2.003 0-3.887-0.78-5.303-2.197l-3.197-3.196-3.196 3.196c-1.417 1.417-3.3 2.197-5.303 2.197s-3.887-0.78-5.304-2.197c-1.417-1.417-2.197-3.3-2.197-5.303s0.78-3.887 2.197-5.304c1.417-1.417 3.3-2.197 5.304-2.197s3.887 0.78 5.303 2.197l3.196 3.196 3.196-3.196c1.417-1.417 3.3-2.197 5.303-2.197s3.887 0.78 5.303 2.197c1.417 1.417 2.197 3.3 2.197 5.304s-0.78 3.887-2.197 5.303c-1.416 1.417-3.3 2.197-5.303 2.197zM21.304 19.197c0.854 0.853 1.989 1.324 3.196 1.323s2.342-0.47 3.196-1.324c0.854-0.854 1.324-1.989 1.324-3.196s-0.47-2.342-1.324-3.196c-0.854-0.854-1.989-1.324-3.196-1.324s-2.342 0.47-3.196 1.324l-3.196 3.196 3.196 3.197zM7.5 11.48c-1.207 0-2.342 0.47-3.196 1.324s-1.324 1.989-1.324 3.196c0 1.207 0.47 2.342 1.324 3.196s1.989 1.324 3.196 1.324c1.207 0 2.342-0.47 3.196-1.324l3.196-3.196-3.196-3.196c-0.854-0.854-1.989-1.324-3.196-1.324v0z"></path>
</symbol>
<symbol id="icon-menu" viewBox="0 0 60 32">
<path d="M2 0h56c1.105 0 2 0.895 2 2s-0.895 2-2 2h-56c-1.105 0-2-0.895-2-2s0.895-2 2-2z"></path>
<path d="M2 14h56c1.105 0 2 0.895 2 2s-0.895 2-2 2h-56c-1.105 0-2-0.895-2-2s0.895-2 2-2z"></path>
<path d="M2 28h56c1.105 0 2 0.895 2 2s-0.895 2-2 2h-56c-1.105 0-2-0.895-2-2s0.895-2 2-2z"></path>
</symbol>
<symbol id="icon-Vector" viewBox="0 0 32 32">
<path d="M18.228 16l13.1-13.1c0.259-0.302 0.394-0.691 0.379-1.089s-0.18-0.775-0.462-1.056-0.659-0.446-1.056-0.462c-0.398-0.015-0.787 0.12-1.089 0.379l-13.1 13.1-13.1-13.116c-0.298-0.298-0.701-0.465-1.122-0.465s-0.824 0.167-1.122 0.465c-0.298 0.298-0.465 0.701-0.465 1.122s0.167 0.824 0.465 1.122l13.116 13.1-13.116 13.1c-0.165 0.142-0.3 0.316-0.395 0.512s-0.148 0.41-0.157 0.627 0.028 0.435 0.108 0.637c0.079 0.203 0.2 0.387 0.354 0.541s0.338 0.274 0.541 0.354 0.42 0.116 0.637 0.108c0.218-0.008 0.431-0.062 0.627-0.157s0.37-0.229 0.512-0.395l13.116-13.1 13.1 13.1c0.302 0.259 0.691 0.394 1.089 0.379s0.775-0.18 1.056-0.462 0.446-0.659 0.462-1.057c0.015-0.398-0.12-0.787-0.379-1.089l-13.1-13.1z"></path>
</symbol>
<symbol id="heart" viewBox="0 0 21 19">
<path d="M10.5 19L8.9775 17.6332C3.57 12.7978 0 9.60872 0 5.69482C0 2.50572 2.541 0 5.775 0C7.602 0 9.3555 0.838692 10.5 2.16403C11.6445 0.838692 13.398 0 15.225 0C18.459 0 21 2.50572 21 5.69482C21 9.60872 17.43 12.7978 12.0225 17.6436L10.5 19Z" fill="#FD5103"/>
<path d="M10.5 17L9.2675 15.921C4.89 12.1035 2 9.58583 2 6.49591C2 3.9782 4.057 2 6.675 2C8.154 2 9.5735 2.66213 10.5 3.70845C11.4265 2.66213 12.846 2 14.325 2C16.943 2 19 3.9782 19 6.49591C19 9.58583 16.11 12.1035 11.7325 15.9292L10.5 17Z" />
</symbol>
<symbol id="icon-mdi-light_chevron-down" viewBox="0 0 32 32">
<path d="M7.791 12.791l7.543 7.543 7.543-7.543-0.943-0.943-6.6 6.6-6.6-6.6-0.943 0.943z"></path>
<path d="M7.791 12.792l7.543 7.541 7.543-7.543-0.943-0.943-6.6 6.6-6.6-6.6-0.943 0.943z"></path>
</symbol>
<symbol id="icon-ep_arrow-up" viewBox="0 0 32 32">
<path d="M16.724 21.24l10.62-11.147c0.171-0.179 0.276-0.422 0.276-0.689s-0.105-0.51-0.276-0.69l0 0-0.012-0.013c-0.168-0.176-0.404-0.286-0.667-0.286s-0.499 0.11-0.666 0.286l-0 0-10 10.497-9.996-10.496c-0.168-0.177-0.405-0.287-0.667-0.287s-0.499 0.11-0.667 0.286l-0 0-0.012 0.012c-0.171 0.179-0.276 0.422-0.276 0.69s0.105 0.511 0.277 0.69l-0-0 10.62 11.147c0.182 0.191 0.439 0.31 0.724 0.31s0.541-0.119 0.724-0.31l0-0z"></path>
</symbol>
</defs>
</svg>
